<svg xmlns="http://www.w3.org/2000/svg" viewBox="0 0 472.6 481.9"><defs><style>.a,.b{fill:none;stroke-miterlimit:10;stroke-width:4px;}.a{stroke:#972588;}.b{stroke:#cd2651;}</style></defs><path class="a" d="M169.8,154.2" transform="translate(-11 -11)"/><line class="a" x1="84.1" y1="217.8" x2="143.1" y2="158.8"/><line class="a" x1="143.1" y1="323.1" x2="84.1" y2="264.1"/><path class="a" d="M154.2,334.2" transform="translate(-11 -11)"/><path class="a" d="M169.8,349.8" transform="translate(-11 -11)"/><line class="a" x1="217.8" y1="397.8" x2="158.8" y2="338.8"/><line class="a" x1="323.1" y1="338.8" x2="264.1" y2="397.8"/><path class="a" d="M334.2,349.8" transform="translate(-11 -11)"/><path class="a" d="M349.8,334.2" transform="translate(-11 -11)"/><line class="a" x1="400.2" y1="261.7" x2="338.8" y2="323.1"/><line class="a" x1="338.8" y1="158.8" x2="400.2" y2="220.2"/><path class="a" d="M349.8,169.8" transform="translate(-11 -11)"/><path class="a" d="M334.2,154.2" transform="translate(-11 -11)"/><line class="a" x1="264.1" y1="84.1" x2="323.1" y2="143.1"/><line class="a" x1="158.8" y1="143.1" x2="217.8" y2="84.1"/><polyline class="a" points="316.5 193.4 367 115 288.5 165.4"/><polyline class="a" points="288.5 316.5 367 367 316.3 288.2"/><polyline class="a" points="165.4 288.5 115 367 193.4 316.5"/><polyline class="a" points="193.4 165.4 115 115 165.4 193.4"/><line class="a" x1="295" y1="295" x2="367" y2="367"/><path class="a" d="M306,306" transform="translate(-11 -11)"/><path class="a" d="M198,198" transform="translate(-11 -11)"/><line class="a" x1="115" y1="115" x2="187" y2="187"/><line class="a" x1="295" y1="187" x2="367" y2="115"/><path class="a" d="M306,198" transform="translate(-11 -11)"/><line class="a" x1="115" y1="367" x2="187" y2="295"/><polygon class="a" points="241 7 187 187 7 241 187 295 241 475 295 295 466 241 295 187 241 7"/><line class="a" x1="241" y1="295" x2="241" y2="475"/><path class="a" d="M252,306" transform="translate(-11 -11)"/><path class="a" d="M252,198" transform="translate(-11 -11)"/><line class="a" x1="241" y1="7" x2="241" y2="187"/><line class="a" x1="142" y1="241" x2="7" y2="241"/><path class="a" d="M153,252" transform="translate(-11 -11)"/><line class="a" x1="466" y1="241" x2="340" y2="241"/><line class="a" x1="275.9" y1="275.9" x2="295" y2="295"/><path class="a" d="M286.9,286.9" transform="translate(-11 -11)"/><path class="a" d="M217.1,217.1" transform="translate(-11 -11)"/><line class="a" x1="187" y1="187" x2="206" y2="206"/><line class="a" x1="206" y1="275.9" x2="187" y2="295"/><path class="a" d="M217.1,286.9" transform="translate(-11 -11)"/><line class="a" x1="295" y1="187" x2="275.9" y2="206"/><polygon class="a" points="241 187 142 241 241 295 340 241 241 187"/><rect class="b" x="236.1" y="236.1" width="31.8" height="31.82" transform="translate(-115.4 241) rotate(-45)"/><polyline class="a" points="214 201.7 196 241 214 280.2"/><polyline class="a" points="268 201.7 286 241 268 280.2"/></svg>